<svg xmlns="http://www.w3.org/2000/svg" viewBox="0 0 24 24" width="24" height="24">
  <path fill="#0066cc" d="M12 2C6.48 2 2 6.48 2 12s4.48 10 10 10 10-4.48 10-10S17.52 2 12 2zm-1 17.93c-3.94-.49-7-3.85-7-7.93 0-.62.08-1.21.21-1.79L9 15v1c0 1.1.9 2 2 2v.93zm6.9-2.54c-.26-.81-1-1.39-1.9-1.39h-1v-3c0-.55-.45-1-1-1H8v-2h2c.55 0 1-.45 1-1V7h2c1.1 0 2-.9 2-2v-.41c2.93 1.19 5 4.06 5 7.41 0 2.08-.8 3.97-2.1 5.39z"/>
  <!-- Data/Table indicators -->
  <rect fill="#ffffff" x="6" y="8" width="12" height="1" rx="0.5"/>
  <rect fill="#ffffff" x="6" y="10" width="8" height="1" rx="0.5"/>
  <rect fill="#ffffff" x="6" y="12" width="10" height="1" rx="0.5"/>
  <rect fill="#ffffff" x="6" y="14" width="6" height="1" rx="0.5"/>
  <rect fill="#ffffff" x="6" y="16" width="9" height="1" rx="0.5"/>
  <!-- Data symbol -->
  <circle fill="#ffffff" cx="16" cy="6" r="1"/>
  <circle fill="#ffffff" cx="18" cy="8" r="0.5"/>
  <circle fill="#ffffff" cx="18" cy="10" r="0.5"/>
</svg>